<?xml version="1.0" standalone="no"?>
<!DOCTYPE svg PUBLIC "-//W3C//DTD SVG 20010904//EN"
 "http://www.w3.org/TR/2001/REC-SVG-20010904/DTD/svg10.dtd">
<svg version="1.0" xmlns="http://www.w3.org/2000/svg"
 width="1366.000000pt" height="768.000000pt" viewBox="0 0 1366.000000 768.000000"
 preserveAspectRatio="xMidYMid meet">
<metadata>
Created by potrace 1.13, written by Peter Selinger 2001-2015
</metadata>
<g transform="translate(0.000000,768.000000) scale(0.100000,-0.100000)"
fill="#000000" stroke="none">
<path d="M5325 6450 c-31 -11 -88 -76 -109 -124 -33 -73 -33 -73 -51 -197 -9
-63 -23 -146 -31 -186 -7 -40 -14 -120 -14 -177 0 -91 4 -115 26 -171 31 -77
97 -142 171 -169 26 -10 68 -26 93 -36 72 -29 236 -70 282 -70 80 0 137 28
219 110 134 133 267 332 284 423 5 27 12 37 26 37 13 0 19 -7 19 -24 0 -41 22
-89 86 -186 116 -177 233 -302 319 -341 49 -23 128 -24 203 -3 124 34 299 99
339 126 50 34 96 97 112 153 32 118 -15 567 -75 711 -16 39 -68 100 -98 116
-15 9 -254 12 -904 12 -485 1 -889 -1 -897 -4z m1745 -170 c19 -34 61 -262 80
-429 21 -185 -2 -237 -125 -289 -116 -48 -260 -84 -304 -76 -54 10 -163 128
-274 296 -27 39 -41 75 -48 118 -17 109 -63 145 -184 145 -112 -1 -162 -39
-173 -132 -8 -75 -98 -216 -221 -345 l-79 -83 -60 2 c-37 2 -100 16 -164 37
-176 59 -192 68 -217 120 -19 39 -22 58 -18 138 5 129 51 417 74 470 l20 43
842 0 c728 -1 844 -3 851 -15z"/>
<path d="M6085 5401 c-87 -26 -105 -35 -161 -77 -124 -95 -194 -230 -194 -379
0 -69 35 -193 73 -258 37 -63 132 -146 213 -187 63 -31 79 -35 172 -38 93 -4
110 -2 178 23 139 51 241 151 296 290 18 46 33 106 36 141 8 121 -62 291 -158
378 -121 109 -303 152 -455 107z m277 -194 c107 -62 165 -172 155 -291 -7 -92
-26 -143 -74 -196 -120 -133 -337 -132 -461 4 -52 57 -70 97 -79 175 -11 112
36 220 125 284 68 49 96 57 197 54 78 -2 98 -7 137 -30z"/>
<path d="M6132 5143 c-48 -17 -102 -68 -126 -118 -21 -43 -20 -128 0 -171 36
-75 129 -135 209 -134 68 1 159 54 196 113 65 108 -1 275 -124 312 -62 18 -99
18 -155 -2z"/>
<path d="M7007 5366 c-59 -22 -107 -64 -133 -120 -52 -112 -18 -229 88 -297
46 -30 60 -34 118 -34 136 1 230 95 230 230 0 99 -44 168 -135 211 -56 27
-111 30 -168 10z m132 -160 c34 -36 33 -92 -3 -122 -38 -33 -80 -31 -117 5
-36 36 -37 64 -3 108 20 27 32 33 63 33 27 0 44 -7 60 -24z"/>
<path d="M6803 4900 c-30 -15 -48 -34 -62 -64 -25 -50 -26 -75 -7 -119 42 -98
162 -121 233 -44 107 118 -23 298 -164 227z"/>
<path d="M7142 4336 c-41 -21 -88 -87 -110 -153 -33 -105 -72 -370 -72 -497 0
-97 3 -115 26 -163 51 -104 125 -149 354 -218 95 -28 211 -33 263 -11 47 20
110 79 180 166 134 169 197 271 197 321 0 22 5 29 19 29 15 0 20 -10 25 -45 4
-24 11 -47 16 -50 4 -3 22 -29 38 -58 50 -87 199 -279 252 -324 67 -56 105
-67 204 -60 61 4 112 16 209 51 156 56 173 64 218 113 63 66 73 94 77 228 3
92 -1 144 -16 220 -11 55 -25 141 -32 190 -12 97 -30 152 -67 203 -53 72 17
67 -921 67 -464 0 -851 -4 -860 -9z m1672 -176 c20 -46 40 -129 66 -275 17
-93 20 -139 15 -205 -8 -92 -22 -131 -59 -155 -41 -27 -288 -105 -332 -105
-63 0 -127 58 -250 225 -58 78 -77 121 -89 197 -15 94 -120 141 -237 106 -48
-14 -85 -56 -93 -106 -11 -70 -14 -77 -59 -147 -74 -115 -114 -169 -172 -226
-53 -52 -57 -54 -107 -53 -60 2 -123 19 -256 70 -87 34 -94 39 -112 78 -23 52
-25 199 -4 301 8 39 22 112 30 162 8 51 22 109 30 130 l15 38 800 0 799 0 15
-35z"/>
<path d="M4476 3439 c-64 -58 -73 -80 -106 -238 -42 -205 -53 -305 -47 -406
13 -189 63 -255 243 -322 152 -57 219 -73 304 -73 63 0 80 4 129 32 114 64
319 331 346 451 15 68 40 75 49 15 16 -102 206 -365 332 -460 51 -38 61 -41
130 -46 70 -4 188 16 219 38 6 4 44 17 85 29 135 40 205 95 240 189 58 153
-18 668 -113 770 -48 51 -24 50 -777 50 -388 0 -769 3 -846 7 l-141 8 -47 -44z
m1708 -118 c24 -26 46 -104 46 -160 0 -25 4 -61 10 -80 16 -56 32 -191 32
-272 0 -111 -16 -140 -94 -177 -78 -37 -260 -92 -305 -92 -44 0 -117 67 -213
195 -81 109 -105 155 -114 218 -11 72 -63 123 -137 132 -61 8 -133 -7 -163
-33 -25 -23 -46 -74 -46 -115 0 -38 -46 -116 -138 -231 -123 -154 -165 -179
-264 -156 -79 19 -248 77 -274 95 -37 24 -58 112 -50 206 17 208 70 468 95
469 3 1 358 2 788 3 430 1 785 5 789 10 11 11 19 9 38 -12z"/>
<path d="M7901 3345 c-94 -21 -168 -61 -232 -125 -68 -67 -100 -128 -125 -233
-17 -76 -17 -82 -1 -164 21 -99 44 -149 99 -215 54 -65 122 -112 198 -138 55
-19 82 -21 175 -18 98 3 117 7 175 34 123 58 206 155 250 294 28 89 26 168 -9
267 -63 182 -209 294 -400 308 -39 3 -92 -1 -130 -10z m218 -177 c185 -90 228
-330 84 -474 -114 -114 -303 -113 -416 2 -65 66 -81 107 -82 204 0 76 3 91 30
139 33 60 93 114 151 135 63 23 179 20 233 -6z"/>
<path d="M7937 3107 c-55 -18 -104 -61 -133 -120 -22 -42 -25 -60 -21 -103 16
-155 191 -246 318 -166 54 36 74 57 94 105 29 71 11 167 -44 224 -53 55 -147
82 -214 60z"/>
<path d="M8751 3308 c-49 -14 -89 -47 -119 -97 -38 -64 -37 -158 1 -224 71
-120 258 -142 348 -40 43 49 59 92 59 155 -1 153 -137 250 -289 206z m129
-150 c27 -29 27 -85 -2 -115 -51 -54 -146 -7 -134 67 3 19 15 43 27 53 30 24
84 22 109 -5z"/>
<path d="M8550 2862 c-47 -23 -84 -96 -75 -146 9 -47 63 -101 109 -109 98 -16
185 65 172 158 -14 92 -118 141 -206 97z"/>
<path d="M5260 2474 c-153 -55 -250 -140 -314 -274 -40 -83 -41 -88 -41 -190
0 -101 2 -108 39 -185 48 -98 125 -177 222 -225 68 -35 71 -35 200 -35 l131 0
77 40 c191 98 284 292 241 500 -32 154 -120 269 -255 333 -69 33 -83 36 -180
39 -58 1 -112 0 -120 -3z m236 -183 c100 -47 159 -131 171 -242 12 -118 -68
-250 -181 -300 -119 -52 -240 -28 -333 67 -66 67 -88 132 -80 241 4 60 11 82
37 122 84 132 245 179 386 112z"/>
<path d="M5295 2214 c-51 -19 -91 -57 -121 -116 -40 -79 -28 -154 35 -221 51
-55 86 -70 156 -70 69 0 108 16 159 69 44 46 56 86 47 161 -8 70 -33 115 -82
148 -65 46 -124 54 -194 29z"/>
<path d="M6127 2430 c-84 -27 -140 -108 -141 -205 0 -96 44 -163 134 -204 85
-39 163 -22 232 49 101 105 87 258 -32 336 -43 29 -141 41 -193 24z m119 -138
c21 -15 44 -57 44 -83 0 -35 -51 -79 -90 -79 -38 0 -78 37 -86 77 -5 27 -1 37
24 63 30 30 81 41 108 22z"/>
<path d="M5935 1976 c-55 -25 -79 -61 -79 -119 0 -60 22 -100 68 -124 91 -47
200 7 213 108 5 32 0 47 -23 80 -45 66 -110 86 -179 55z"/>
</g>
</svg>
