<?xml version="1.0" standalone="no"?>
<!DOCTYPE svg PUBLIC "-//W3C//DTD SVG 20010904//EN"
 "http://www.w3.org/TR/2001/REC-SVG-20010904/DTD/svg10.dtd">
<svg version="1.0" xmlns="http://www.w3.org/2000/svg"
 width="1131.000000pt" height="729.000000pt" viewBox="0 0 1131.000000 729.000000"
 preserveAspectRatio="xMidYMid meet">
<metadata>
Created by potrace 1.12, written by Peter Selinger 2001-2015
</metadata>
<g transform="translate(0.000000,729.000000) scale(0.100000,-0.100000)"
fill="#000000" stroke="none">
<path d="M8360 6883 c-184 -8 -336 -19 -338 -24 -2 -5 -10 -9 -18 -9 -12 0
-14 -14 -12 -72 l3 -71 93 -23 c170 -42 214 -89 250 -264 13 -65 15 -317 19
-1822 l5 -1747 94 -21 94 -22 99 86 98 86 64 -29 c337 -152 809 -186 1131 -80
356 116 602 378 716 764 80 271 102 641 56 970 -74 530 -303 857 -676 966
-104 30 -333 38 -448 15 -203 -41 -389 -150 -592 -345 -69 -67 -129 -121 -132
-121 -3 0 -6 401 -6 890 l0 890 -82 -1 c-46 -1 -234 -8 -418 -16z m1323 -1648
c193 -41 342 -195 421 -438 119 -364 112 -1008 -13 -1332 -79 -206 -192 -327
-357 -386 -83 -30 -286 -37 -404 -15 -179 33 -325 140 -395 288 -67 144 -70
174 -70 818 0 529 1 579 18 627 55 159 253 351 422 412 115 42 259 51 378 26z"/>
<path d="M7140 5552 c-118 -89 -209 -204 -210 -264 0 -13 -8 -18 -26 -18 -55
0 -174 -34 -261 -75 -51 -24 -93 -46 -93 -50 0 -3 26 8 58 24 88 44 188 71
287 78 159 9 290 -36 400 -138 159 -149 243 -401 265 -791 10 -186 0 -439 -24
-583 -59 -355 -200 -574 -422 -657 -53 -20 -78 -22 -234 -22 -165 0 -179 1
-253 27 -186 65 -304 190 -351 374 -34 131 -39 261 -34 966 l5 688 44 47 44
47 -41 -38 -41 -38 -6 107 c-4 59 -7 160 -7 226 l0 118 -160 0 c-278 0 -661
-20 -677 -35 -8 -9 -13 -38 -13 -82 l0 -69 72 -17 c139 -34 212 -90 244 -189
15 -45 18 -105 22 -421 2 -224 0 -373 -6 -380 -5 -7 -74 -129 -152 -272 -79
-143 -169 -302 -202 -353 -134 -214 -284 -381 -423 -471 -103 -67 -105 -71
-20 -28 182 91 336 246 495 500 31 51 115 198 185 327 70 129 132 239 137 245
5 6 7 -86 3 -230 -3 -132 -9 -649 -13 -1150 -8 -968 -7 -943 -58 -1032 -19
-33 -38 -49 -87 -72 -34 -16 -75 -33 -92 -36 -66 -16 -75 -29 -75 -105 l0 -70
566 0 c477 0 568 2 580 14 9 10 14 36 14 78 l0 63 -89 28 c-112 34 -167 73
-204 147 -40 80 -47 171 -47 592 l0 368 50 -20 c218 -86 581 -123 838 -84 320
47 580 206 745 456 69 104 96 160 137 273 72 204 100 399 100 688 0 657 -170
1069 -520 1260 -81 44 -222 86 -315 93 l-70 5 -65 -49z"/>
<path d="M422 5459 l3 -72 40 -12 c118 -35 206 -111 240 -207 18 -50 20 -105
25 -843 5 -548 10 -810 19 -855 70 -380 223 -576 510 -652 98 -26 296 -29 392
-5 69 17 183 57 177 62 -2 2 -35 -6 -73 -17 -95 -29 -337 -31 -435 -4 -296 81
-461 308 -509 701 -7 57 -11 339 -11 775 0 377 -4 722 -10 767 -12 105 -41
172 -97 223 -46 44 -126 86 -180 96 -32 6 -33 7 -33 60 0 53 0 54 -30 54 l-31
0 3 -71z"/>
<path d="M2050 5461 l0 -69 53 -18 c174 -57 231 -127 257 -314 17 -117 23
-648 12 -1040 -9 -316 -12 -362 -31 -420 -37 -117 -126 -242 -231 -324 -24
-19 -27 -24 -10 -15 95 46 214 169 266 274 62 126 64 140 75 610 15 582 3 927
-36 1061 -27 95 -140 189 -252 210 -32 6 -33 7 -33 60 l0 54 -35 0 -35 0 0
-69z"/>
<path d="M3703 5375 c-375 -257 -579 -767 -542 -1355 25 -409 133 -699 338
-914 200 -208 464 -308 816 -309 164 -1 274 16 408 59 84 28 103 43 23 19
-103 -31 -266 -48 -416 -42 -333 12 -579 112 -767 311 -79 82 -124 148 -182
263 -181 362 -211 935 -72 1354 94 281 238 485 456 646 59 44 17 22 -62 -32z"/>
<path d="M4295 5380 c-44 -9 -158 -50 -153 -55 2 -2 28 3 58 11 30 8 96 14
146 14 212 0 349 -91 445 -295 46 -99 85 -251 99 -392 19 -183 16 -173 54
-173 l34 0 -5 48 c-19 227 -39 341 -79 462 -86 258 -256 393 -492 389 -37 -1
-85 -5 -107 -9z"/>
<path d="M6479 5093 c-13 -16 -12 -17 4 -4 16 13 21 21 13 21 -2 0 -10 -8 -17
-17z"/>
<path d="M3730 4245 c0 -13 102 -15 855 -15 753 0 855 2 855 15 0 13 -102 15
-855 15 -753 0 -855 -2 -855 -15z"/>
<path d="M2395 3300 c-12 -13 -15 -24 -9 -28 7 -5 7 -82 2 -231 -5 -123 -7
-225 -5 -227 2 -3 774 22 805 26 1 0 2 7 2 17 0 14 -16 15 -162 10 -90 -4
-257 -10 -372 -13 l-209 -7 8 231 c5 157 4 232 -3 232 -6 0 -17 2 -24 5 -8 3
-23 -4 -33 -15z"/>
<path d="M1850 2890 c-9 -6 -10 -10 -3 -10 6 0 15 5 18 10 8 12 4 12 -15 0z"/>
<path d="M3833 2253 c-18 -7 -16 -23 1 -23 31 0 46 -42 46 -123 0 -70 -2 -78
-17 -73 -103 40 -222 -5 -264 -99 -26 -57 -26 -194 1 -252 40 -89 138 -110
229 -49 l51 35 0 -35 0 -34 65 0 c51 0 65 3 65 15 0 8 -4 15 -9 15 -5 0 -17 7
-25 16 -14 13 -16 56 -16 315 l0 299 -57 -1 c-32 0 -64 -3 -70 -6z m18 -269
c22 -23 24 -36 27 -130 4 -121 -5 -154 -53 -184 -92 -57 -165 11 -165 153 0
121 44 187 124 187 33 0 48 -6 67 -26z"/>
<path d="M4750 2249 c-10 -7 -11 -12 -4 -15 41 -17 47 -31 52 -118 l5 -87 -29
8 c-16 4 -57 8 -90 8 -80 -1 -131 -33 -165 -102 -33 -66 -34 -198 -3 -258 28
-54 76 -85 131 -85 51 0 76 11 121 53 l32 31 0 -42 0 -42 65 0 c69 0 88 16 41
37 -31 15 -36 59 -36 371 l0 252 -52 0 c-29 0 -60 -5 -68 -11z m15 -263 c28
-28 40 -105 32 -203 -4 -55 -10 -70 -34 -95 -37 -37 -93 -47 -129 -23 -37 24
-54 73 -54 160 0 126 37 184 118 185 32 0 49 -6 67 -24z"/>
<path d="M480 2215 c0 -8 6 -15 14 -15 8 0 18 -6 23 -12 4 -7 10 -114 13 -238
6 -263 13 -288 90 -327 84 -43 230 -25 283 35 39 43 46 89 47 300 0 203 6 242
35 242 8 0 15 7 15 15 0 12 -17 15 -90 15 -91 0 -113 -10 -66 -31 32 -15 36
-41 36 -234 0 -203 -10 -261 -50 -297 -25 -23 -39 -28 -85 -28 -46 0 -60 4
-87 29 l-33 29 -3 241 -3 240 25 17 c15 9 26 20 26 25 0 5 -43 9 -95 9 -78 0
-95 -3 -95 -15z"/>
<path d="M1600 2175 l0 -45 40 0 40 0 0 45 0 45 -40 0 -40 0 0 -45z"/>
<path d="M3390 2175 l0 -45 40 0 40 0 0 45 0 45 -40 0 -40 0 0 -45z"/>
<path d="M1108 2043 c-61 -4 -74 -17 -34 -32 13 -5 26 -17 30 -26 3 -9 6 -84
6 -166 0 -147 -1 -150 -25 -175 -14 -14 -25 -29 -25 -34 0 -13 167 -13 174 -1
3 5 -5 16 -19 25 -25 16 -25 18 -25 155 l0 139 32 31 c42 41 97 43 127 5 19
-24 21 -40 21 -170 0 -142 0 -144 -25 -160 -14 -9 -22 -20 -19 -25 3 -5 43 -9
90 -9 66 0 84 3 84 14 0 8 -9 17 -19 21 -27 8 -31 32 -31 185 0 160 -12 196
-72 218 -50 19 -96 9 -149 -33 l-44 -35 -3 40 c-2 22 -6 39 -10 38 -4 -1 -33
-3 -64 -5z"/>
<path d="M2328 2040 c-80 -24 -128 -96 -136 -200 -10 -152 58 -240 188 -240
55 0 100 18 142 58 21 19 25 29 17 38 -9 11 -19 8 -52 -14 -55 -36 -134 -38
-170 -4 -24 23 -47 87 -47 131 0 20 5 21 146 21 l147 0 -7 51 c-4 29 -16 70
-27 91 -32 63 -120 93 -201 68z m119 -69 c13 -19 23 -49 23 -67 l0 -34 -99 0
-99 0 10 43 c5 23 21 55 36 70 22 23 34 27 66 25 33 -2 45 -9 63 -37z"/>
<path d="M2830 2034 c-19 -8 -47 -27 -62 -41 l-28 -27 0 37 0 37 -65 0 c-70 0
-79 -8 -40 -34 25 -16 25 -17 25 -177 0 -161 -7 -199 -36 -199 -9 0 -14 -6
-12 -12 3 -9 32 -14 88 -16 89 -3 118 8 79 29 -13 6 -27 17 -31 23 -4 6 -8 69
-8 140 l0 128 34 34 c40 40 69 43 100 9 13 -14 33 -25 45 -25 19 0 21 6 21 55
l0 55 -37 0 c-21 -1 -54 -8 -73 -16z"/>
<path d="M3065 2035 c-55 -19 -85 -57 -85 -104 0 -53 29 -85 114 -128 39 -19
79 -42 89 -51 21 -19 23 -75 2 -95 -40 -41 -134 -27 -160 24 -9 17 -24 29 -35
29 -17 0 -20 -7 -20 -44 0 -25 5 -48 11 -52 21 -13 175 -17 211 -5 50 17 79
52 85 103 7 60 -28 100 -124 144 -80 37 -108 67 -97 108 8 33 31 46 84 46 31
0 47 -6 65 -26 14 -15 25 -31 25 -35 0 -5 9 -9 20 -9 17 0 20 7 20 49 l0 48
-46 7 c-70 9 -115 7 -159 -9z"/>
<path d="M4155 2025 c-38 -14 -71 -25 -72 -25 -2 0 -3 -16 -3 -35 0 -30 3 -35
24 -35 17 0 31 10 42 29 29 49 89 65 131 36 23 -16 43 -70 43 -116 0 -24 -4
-26 -75 -37 -132 -21 -191 -66 -189 -146 2 -57 46 -96 110 -96 46 0 110 26
133 54 20 24 26 20 26 -16 l0 -33 59 0 c62 0 82 13 44 30 -29 13 -36 57 -37
222 -1 120 -2 123 -29 154 -40 45 -109 50 -207 14z m165 -250 c0 -73 -47 -125
-112 -125 -70 0 -100 60 -57 114 23 29 64 44 127 45 42 1 42 1 42 -34z"/>
<path d="M5113 2039 c-164 -47 -178 -368 -20 -428 70 -27 156 -9 221 44 25 20
28 26 16 40 -11 14 -15 14 -29 1 -24 -22 -86 -46 -116 -46 -65 0 -107 46 -120
133 l-7 47 147 0 148 0 -6 51 c-9 76 -36 120 -87 147 -46 23 -93 27 -147 11z
m117 -51 c11 -12 20 -24 20 -27 1 -3 5 -25 9 -48 l8 -43 -98 0 -99 0 0 26 c0
30 14 60 43 92 28 30 88 30 117 0z"/>
<path d="M1540 2031 c0 -6 12 -16 28 -23 l27 -13 3 -155 c3 -175 0 -196 -28
-205 -11 -3 -20 -13 -20 -21 0 -11 19 -14 90 -14 66 0 90 3 90 13 0 7 -10 17
-22 22 -23 10 -23 13 -26 208 l-2 197 -70 0 c-39 0 -70 -4 -70 -9z"/>
<path d="M1730 2030 c0 -6 6 -13 14 -16 17 -6 50 -85 121 -281 45 -126 49
-133 75 -133 26 0 32 11 116 196 58 129 96 201 111 211 13 9 23 19 23 24 0 5
-38 9 -85 9 -47 0 -85 -3 -85 -6 0 -3 11 -15 25 -26 14 -11 25 -26 25 -34 0
-20 -100 -263 -110 -269 -7 -4 -44 100 -96 263 -2 7 7 24 21 36 14 13 25 26
25 30 0 3 -40 6 -90 6 -55 0 -90 -4 -90 -10z"/>
<path d="M3330 2031 c0 -6 12 -16 28 -23 l27 -13 3 -163 c3 -164 -4 -202 -33
-202 -8 0 -15 -7 -15 -15 0 -12 17 -15 90 -15 73 0 90 3 90 15 0 8 -7 15 -15
15 -29 0 -35 39 -35 224 l0 186 -70 0 c-38 0 -70 -4 -70 -9z"/>
<path d="M9392 1408 c-51 -53 -59 -65 -48 -76 11 -11 29 -3 105 49 50 35 91
69 91 76 0 9 -15 13 -44 13 -40 0 -48 -5 -104 -62z"/>
<path d="M1166 1269 c-90 -21 -137 -76 -138 -158 0 -84 33 -124 160 -191 90
-47 122 -87 122 -151 0 -43 -5 -55 -30 -81 -29 -28 -35 -30 -90 -26 -67 5 -93
22 -112 74 -9 25 -18 34 -35 34 -22 0 -23 -4 -23 -64 l0 -65 57 -11 c85 -18
201 -9 247 19 68 42 93 135 58 213 -22 49 -53 76 -154 131 -85 47 -118 86
-118 138 0 28 7 47 28 70 25 28 34 31 81 31 58 0 90 -20 111 -73 9 -21 19 -29
36 -29 23 0 24 3 24 60 0 54 -3 61 -22 69 -38 14 -160 20 -202 10z"/>
<path d="M2217 1273 c-3 -5 -51 -129 -107 -278 -116 -307 -121 -319 -155 -341
-14 -9 -22 -20 -19 -25 7 -12 191 -12 199 1 3 5 -8 16 -25 25 -36 18 -39 51
-15 133 l16 52 110 0 c124 0 117 5 140 -98 8 -36 7 -49 -6 -68 -8 -13 -22 -24
-30 -24 -8 0 -15 -7 -15 -15 0 -12 18 -15 104 -15 105 0 135 9 96 30 -30 16
-42 46 -125 315 -42 138 -81 265 -86 283 -9 28 -15 32 -44 32 -19 0 -36 -3
-38 -7z m62 -238 c23 -77 41 -144 41 -148 0 -4 -43 -7 -95 -7 -52 0 -95 4 -95
9 0 5 6 24 13 42 8 19 31 83 52 142 20 59 39 107 40 105 2 -2 21 -66 44 -143z"/>
<path d="M3980 1088 c-149 -395 -150 -396 -181 -422 -47 -40 -38 -46 71 -46
74 0 100 3 100 13 0 7 -10 17 -22 22 -40 18 -44 38 -22 112 l19 68 112 3 111
3 16 -55 c25 -85 22 -116 -14 -129 -17 -6 -29 -16 -27 -22 5 -13 217 -19 217
-6 0 5 -13 23 -29 39 -20 20 -38 56 -56 118 -15 49 -55 179 -89 289 l-61 200
-36 3 -36 3 -73 -193z m120 -3 c12 -44 31 -108 40 -142 l19 -63 -99 0 -99 0
52 149 c29 83 55 147 58 143 3 -4 16 -43 29 -87z"/>
<path d="M6115 1018 c-111 -299 -136 -354 -165 -363 -12 -4 -19 -12 -17 -18 2
-8 38 -13 100 -15 78 -2 97 0 97 11 0 8 -9 17 -20 20 -34 9 -41 48 -22 119
l17 63 114 0 115 0 13 -50 c20 -80 17 -113 -12 -127 -14 -6 -25 -17 -25 -25 0
-10 24 -13 105 -13 58 0 105 4 105 9 0 5 -13 22 -28 38 -23 23 -44 81 -117
321 l-89 292 -36 0 -37 0 -98 -262z m163 10 c23 -78 40 -143 38 -145 -2 -2
-46 -2 -98 -1 l-94 3 50 142 c28 79 53 143 56 143 3 0 25 -64 48 -142z"/>
<path d="M7726 1271 c-3 -5 -53 -133 -111 -286 -105 -276 -133 -335 -162 -335
-8 0 -13 -6 -11 -12 7 -19 198 -24 198 -5 0 8 -11 19 -25 25 -20 9 -25 19 -25
50 0 21 7 60 16 86 l16 47 112 -3 111 -3 16 -65 c18 -72 13 -100 -19 -115 -12
-5 -22 -15 -22 -22 0 -10 27 -13 105 -13 78 0 105 3 105 13 0 7 -9 18 -20 25
-12 7 -26 25 -32 40 -10 25 -178 572 -178 579 0 7 -69 2 -74 -6z m63 -238 c22
-78 41 -144 41 -147 0 -3 -43 -6 -95 -6 -52 0 -95 4 -95 9 0 5 16 53 35 107
55 155 67 185 70 182 1 -2 21 -67 44 -145z"/>
<path d="M8905 1208 c-201 -531 -213 -558 -261 -558 -34 0 -59 27 -114 125
-28 50 -65 103 -83 119 -18 17 -26 31 -20 33 29 10 79 51 100 82 18 26 23 48
23 97 0 56 -3 67 -31 99 -45 51 -103 65 -276 65 -79 0 -143 -3 -143 -7 0 -4
12 -17 28 -29 l27 -22 3 -240 c3 -259 -2 -301 -36 -317 -42 -19 -15 -30 81
-33 77 -2 97 0 97 11 0 8 -11 19 -24 25 -26 12 -36 58 -36 172 0 76 3 79 65
73 50 -4 67 -23 130 -139 26 -49 56 -101 67 -116 l19 -27 164 0 c126 -1 165 2
165 12 0 7 -10 17 -22 22 -45 21 -47 57 -9 158 l11 27 109 0 110 0 11 -37 c6
-21 13 -60 17 -86 6 -46 5 -48 -26 -60 -55 -20 -29 -32 82 -35 89 -2 107 0
107 12 0 8 -8 17 -18 20 -29 9 -38 34 -131 338 l-87 283 -36 3 -36 3 -27 -73z
m-522 8 c58 -24 72 -50 72 -128 0 -67 -1 -71 -36 -102 -29 -27 -47 -34 -97
-40 -34 -4 -67 -4 -72 -1 -11 7 -14 268 -3 278 11 12 103 7 136 -7z m607 -171
c18 -60 36 -122 41 -137 l8 -28 -99 0 -99 0 52 149 c28 83 55 145 58 138 4 -7
21 -61 39 -122z"/>
<path d="M10419 1253 c-6 -16 -53 -139 -104 -274 -103 -273 -117 -304 -145
-322 -11 -6 -20 -18 -20 -25 0 -10 23 -12 97 -10 100 3 126 15 73 35 -25 9
-30 17 -30 44 0 18 8 56 17 86 l17 53 112 0 113 0 16 -75 c16 -72 16 -77 0
-95 -10 -11 -24 -20 -32 -20 -7 0 -13 -7 -13 -15 0 -13 16 -15 107 -13 70 2
108 7 110 15 2 6 -5 14 -17 18 -29 9 -41 37 -100 230 -28 94 -67 221 -86 283
l-35 112 -35 0 c-28 0 -36 -5 -45 -27z m70 -215 c23 -75 41 -142 41 -147 0 -7
-35 -11 -96 -11 -73 0 -95 3 -92 13 3 6 26 74 53 150 26 76 49 136 50 135 2
-2 22 -65 44 -140z"/>
<path d="M470 1255 c0 -8 7 -15 15 -15 30 0 35 -39 35 -299 0 -223 -2 -262
-16 -275 -8 -9 -20 -16 -25 -16 -5 0 -9 -7 -9 -15 0 -13 30 -15 214 -15 l213
0 7 38 c3 20 6 58 6 85 0 42 -2 47 -23 47 -18 0 -25 -9 -36 -44 -20 -69 -36
-78 -146 -82 l-95 -4 0 140 0 140 63 0 c66 0 85 -10 100 -52 4 -10 16 -18 27
-18 19 0 20 6 20 90 0 84 -1 90 -20 90 -11 0 -23 -8 -27 -17 -15 -43 -34 -53
-100 -53 l-63 0 0 125 0 125 89 0 c99 0 128 -13 151 -70 9 -21 19 -30 36 -30
23 0 24 3 24 70 l0 70 -220 0 c-189 0 -220 -2 -220 -15z"/>
<path d="M1470 1189 c0 -77 1 -80 22 -77 15 2 25 13 32 36 16 57 48 82 106 82
l50 0 0 -249 c0 -291 -2 -310 -42 -325 -53 -20 -24 -31 82 -31 68 0 105 4 107
11 2 7 -8 14 -21 18 -17 4 -28 16 -33 34 -5 15 -8 142 -8 282 l0 255 46 3 c56
4 84 -16 103 -73 11 -31 20 -41 40 -43 l26 -3 0 80 0 81 -255 0 -255 0 0 -81z"/>
<path d="M2590 1264 c0 -3 14 -19 30 -34 l30 -28 0 -254 c0 -213 -2 -257 -16
-276 -8 -12 -22 -22 -30 -22 -9 0 -14 -6 -12 -12 11 -31 306 -15 374 20 45 24
95 74 118 119 28 55 41 173 29 253 -20 127 -83 198 -200 226 -57 13 -323 20
-323 8z m286 -49 c95 -28 136 -97 142 -238 9 -212 -57 -306 -215 -307 l-63 0
0 280 0 280 43 0 c24 0 66 -7 93 -15z"/>
<path d="M3220 1257 c0 -7 10 -17 23 -22 22 -10 22 -13 28 -245 6 -240 7 -254
42 -304 60 -87 266 -90 344 -5 41 45 46 76 52 314 6 226 6 230 29 240 12 5 22
15 22 22 0 10 -24 13 -89 13 -90 0 -123 -12 -78 -29 13 -5 27 -17 31 -26 10
-27 7 -427 -4 -467 -16 -57 -60 -88 -125 -88 -65 0 -109 31 -125 88 -12 46
-13 432 -1 465 5 13 19 27 30 30 12 3 21 10 21 16 0 7 -34 11 -100 11 -74 0
-100 -3 -100 -13z"/>
<path d="M4430 1257 c0 -7 10 -17 23 -22 22 -10 22 -11 25 -270 1 -143 0 -270
-3 -282 -3 -12 -14 -25 -25 -28 -11 -3 -20 -13 -20 -21 0 -12 34 -14 209 -14
l208 0 7 61 c11 113 9 129 -18 129 -20 0 -25 -7 -36 -47 -20 -81 -38 -93 -142
-93 l-88 0 0 264 c0 145 3 272 6 281 4 9 17 21 30 26 50 19 23 29 -76 29 -74
0 -100 -3 -100 -13z"/>
<path d="M5370 1262 c0 -6 10 -17 23 -23 12 -7 25 -17 29 -23 4 -6 8 -126 8
-266 0 -215 -2 -259 -16 -278 -8 -12 -22 -22 -30 -22 -9 0 -14 -6 -12 -12 11
-31 307 -15 374 20 93 49 141 131 150 258 13 159 -34 265 -140 318 -57 29 -64
31 -222 34 -113 3 -164 1 -164 -6z m282 -42 c49 -14 94 -53 120 -104 17 -31
23 -64 26 -139 9 -212 -57 -306 -215 -307 l-63 0 0 280 0 280 48 0 c26 0 64
-5 84 -10z"/>
<path d="M7020 1256 c0 -9 7 -16 15 -16 30 0 35 -39 35 -299 0 -223 -2 -262
-16 -275 -8 -9 -20 -16 -25 -16 -5 0 -9 -7 -9 -15 0 -12 18 -15 100 -15 82 0
100 3 100 15 0 8 -4 15 -10 15 -5 0 -19 9 -30 20 -17 17 -20 33 -20 125 l0
105 63 0 c90 0 159 23 196 65 78 89 63 227 -31 277 -38 20 -60 23 -205 26
-145 4 -163 2 -163 -12z m297 -46 c35 -22 53 -64 53 -125 0 -100 -35 -135
-142 -143 l-68 -5 0 148 0 148 68 -5 c37 -3 77 -11 89 -18z"/>
<path d="M9310 1255 c0 -8 7 -15 15 -15 30 0 35 -39 35 -299 0 -223 -2 -262
-16 -275 -8 -9 -20 -16 -25 -16 -5 0 -9 -7 -9 -15 0 -12 17 -15 95 -15 102 0
114 7 70 42 l-25 19 0 260 c0 260 5 299 35 299 8 0 15 7 15 15 0 12 -17 15
-95 15 -78 0 -95 -3 -95 -15z"/>
<path d="M9620 1263 c0 -4 12 -17 28 -29 l27 -22 3 -208 c5 -269 -1 -331 -34
-346 -13 -6 -24 -18 -24 -26 0 -13 23 -14 163 -9 177 6 216 15 264 59 81 77
55 223 -46 265 -33 14 -34 17 -17 27 77 45 115 111 102 179 -18 94 -79 117
-308 117 -87 0 -158 -3 -158 -7z m289 -39 c52 -11 81 -49 81 -106 0 -98 -48
-138 -164 -138 l-66 0 0 118 c0 65 3 122 7 125 8 9 100 9 142 1z m3 -294 c55
-16 88 -61 88 -120 0 -105 -40 -140 -162 -140 l-78 0 0 135 0 135 58 0 c31 0
74 -5 94 -10z"/>
</g>
</svg>
